<?xml version="1.0" encoding="UTF-8" standalone="no"?>
<!-- Generator: Adobe Illustrator 12.0.0, SVG Export Plug-In . SVG Version: 6.00 Build 51448)  -->
<svg
   xmlns:dc="http://purl.org/dc/elements/1.1/"
   xmlns:cc="http://web.resource.org/cc/"
   xmlns:rdf="http://www.w3.org/1999/02/22-rdf-syntax-ns#"
   xmlns:svg="http://www.w3.org/2000/svg"
   xmlns="http://www.w3.org/2000/svg"
   xmlns:sodipodi="http://sodipodi.sourceforge.net/DTD/sodipodi-0.dtd"
   xmlns:inkscape="http://www.inkscape.org/namespaces/inkscape"
   version="1.0"
   width="400"
   height="400"
   viewBox="0 0 343.75 416.25"
   overflow="visible"
   enable-background="new 0 0 343.75 416.25"
   xml:space="preserve"
   id="svg3471"
   sodipodi:version="0.32"
   inkscape:version="0.45.1"
   sodipodi:docname="bluenote-bw-2.svg"
   inkscape:output_extension="org.inkscape.output.svg.inkscape"
   sodipodi:docbase="C:\Users\Arnaud\Documents\XMMS-Submissions\bluenote\bluenote"
   inkscape:export-filename="C:\Users\Arnaud\Documents\XMMS-Submissions\bluenote\bluenote-400.png"
   inkscape:export-xdpi="90"
   inkscape:export-ydpi="90"><metadata
   id="metadata8"><rdf:RDF><cc:Work
       rdf:about=""><dc:format>image/svg+xml</dc:format><dc:type
         rdf:resource="http://purl.org/dc/dcmitype/StillImage" /></cc:Work></rdf:RDF></metadata><defs
   id="defs3500" /><sodipodi:namedview
   inkscape:window-height="750"
   inkscape:window-width="1264"
   inkscape:pageshadow="2"
   inkscape:pageopacity="0.0"
   guidetolerance="10.0"
   gridtolerance="10.0"
   objecttolerance="10.0"
   borderopacity="1.0"
   bordercolor="#666666"
   pagecolor="#ffffff"
   id="base"
   inkscape:zoom="0.93783606"
   inkscape:cx="220.47441"
   inkscape:cy="217.29928"
   inkscape:window-x="0"
   inkscape:window-y="14"
   inkscape:current-layer="svg3471"
   width="400px"
   height="400px"
   borderlayer="false"
   showborder="true"
   inkscape:showpageshadow="false" /><path
   style="fill:#000000;fill-opacity:1;fill-rule:evenodd"
   id="bg"
   d="M 324.05109,148.25615 C 357.11743,181.32075 357.11743,234.93802 324.05109,268.00262 L 231.74911,360.30458 C 198.67748,393.36918 145.07601,393.36918 112.00263,360.30458 L 19.693644,268.00262 C -13.370951,234.93627 -13.363936,181.32075 19.70066,148.25615 L 112.00263,55.954179 C 145.07601,22.889582 198.67748,22.889582 231.74911,55.954179 L 324.05109,148.25615 z "
   inkscape:label="#path3485" /><path
   style="fill:#ffffff;fill-opacity:1;stroke:none"
   id="note"
   d="M 332.14446,145.06896 L 326.64889,139.58217 L 317.71532,130.64859 L 234.92752,47.867825 C 217.51641,30.456725 194.6957,21.751177 171.87499,21.751177 C 149.06304,21.751177 126.23356,30.456725 108.82247,47.867825 L 11.614305,145.06896 C -5.789775,162.48884 -14.504094,185.30781 -14.504094,208.12149 C -14.504094,230.94923 -5.7985463,253.76291 11.614305,271.18279 L 88.608334,348.1698 L 108.82247,368.38218 C 115.79322,375.36169 123.64453,380.91339 132.01154,385.09515 C 144.52521,391.35199 158.20011,394.49882 171.87499,394.49882 C 194.6957,394.49882 217.51641,385.80204 234.92752,368.38919 L 332.13568,271.18103 C 349.54854,253.76818 358.25409,230.94747 358.25409,208.12851 C 358.25409,185.30956 349.55555,162.48884 332.14446,145.06896 z M 26.003105,256.79223 C 13.01056,243.79266 5.86089,226.50612 5.86089,208.12149 C 5.86089,189.75267 13.012315,172.4661 26.003105,159.46654 L 123.22004,62.258379 C 136.2196,49.262326 153.49739,42.107393 171.87499,42.107393 C 190.25961,42.107393 207.54616,49.262326 220.54572,62.258379 C 220.53871,62.258379 220.53871,62.258379 220.53871,62.258379 L 296.43995,138.16136 C 269.74972,143.21665 241.42643,133.58494 217.00421,115.01088 C 175.14811,83.186427 129.34182,90.565884 89.320494,139.64357 L 168.65448,277.20282 C 157.60197,272.35101 144.8848,270.7583 132.04136,273.52801 C 108.75757,278.55171 91.676237,296.35573 86.863014,317.64512 L 26.003105,256.79223 z M 317.74689,256.79223 L 220.53871,353.99337 C 209.4932,365.03889 195.35524,371.84475 180.08588,373.64971 C 197.13564,360.47824 206.16394,338.73279 201.42965,316.78386 C 201.15426,315.51916 200.77714,314.30358 200.42456,313.07922 L 200.4877,313.10203 L 200.31405,312.67052 C 199.38088,309.54649 198.18635,306.56278 196.77429,303.72115 L 144.90059,172.74149 C 154.65158,158.63509 181.02783,145.24963 220.08965,153.12375 C 257.9675,160.76106 285.93822,161.49953 309.0466,150.768 L 317.74513,159.46478 C 330.74469,172.46434 337.90488,189.75091 337.90488,208.11974 C 337.90664,226.50787 330.74645,243.79266 317.74689,256.79223 z " />

</svg>